<svg width="62" height="62" viewBox="0 0 62 62" fill="#F53838" xmlns="http://www.w3.org/2000/svg">
<circle cx="31" cy="31.2527" r="29" transform="rotate(-0.951156 31 31.2527)" stroke="#F53838" stroke-width="2"/>
<path d="M39.7281 29.8576L24.9051 30.1037L29.3515 24.5791C29.5594 24.3204 29.656 23.9896 29.62 23.6597C29.5841 23.3297 29.4185 23.0275 29.1598 22.8196C28.901 22.6117 28.5703 22.5151 28.2403 22.551C27.9103 22.587 27.6081 22.7526 27.4002 23.0113L21.2756 30.614C21.2345 30.6744 21.198 30.7377 21.1662 30.8034C21.1672 30.8659 21.1679 30.9034 21.0814 30.9673C21.0271 31.1115 21 31.2646 21.0014 31.4187C21.0051 31.5728 21.0373 31.7248 21.0963 31.8672C21.0974 31.9297 21.098 31.9672 21.1865 32.0282C21.2205 32.0928 21.2591 32.1549 21.3021 32.2138L27.6758 39.609C27.7956 39.7482 27.9447 39.8592 28.1123 39.9342C28.2799 40.0092 28.462 40.0463 28.6456 40.043C28.9376 40.0387 29.219 39.9323 29.4407 39.7422C29.5655 39.6352 29.668 39.5046 29.7423 39.3579C29.8165 39.2113 29.8611 39.0514 29.8735 38.8874C29.8859 38.7235 29.8658 38.5587 29.8144 38.4025C29.763 38.2463 29.6813 38.1018 29.5739 37.9773L24.9466 32.6034L39.7696 32.3573C40.101 32.3518 40.4167 32.2148 40.6472 31.9765C40.8777 31.7383 41.0041 31.4182 40.9986 31.0867C40.9931 30.7552 40.8562 30.4395 40.6179 30.209C40.3796 29.9785 40.0595 29.8521 39.7281 29.8576Z" fill="#FFFFFF"/>
</svg>

